<?xml version="1.0" encoding="utf-8"?>
<!-- Generator: Adobe Illustrator 17.1.0, SVG Export Plug-In . SVG Version: 6.00 Build 0)  -->
<!DOCTYPE svg PUBLIC "-//W3C//DTD SVG 1.1//EN" "http://www.w3.org/Graphics/SVG/1.1/DTD/svg11.dtd">
<svg version="1.1" id="Layer_1" xmlns="http://www.w3.org/2000/svg" xmlns:xlink="http://www.w3.org/1999/xlink" x="0px" y="0px"
	 viewBox="0 0 28 23.8" enable-background="new 0 0 28 23.8" xml:space="preserve">
<path fill-rule="evenodd" clip-rule="evenodd" fill="#FFFFFF" d="M2.8,4.2V2.8h15.4v1.4H2.8z"/>
<path fill-rule="evenodd" clip-rule="evenodd" fill="#FFFFFF" d="M24.4,2.8c0.4,0,0.7,0.3,0.7,0.7s-0.3,0.7-0.7,0.7
	c-0.4,0-0.7-0.3-0.7-0.7S24.1,2.8,24.4,2.8z"/>
<path fill="#FFFFFF" d="M26.5,1.3c0.1,0,0.1,0.1,0.1,0.1v4.2c0,0.1-0.1,0.1-0.1,0.1H1.4c-0.1,0-0.1-0.1-0.1-0.1V1.4
	c0-0.1,0.1-0.1,0.1-0.1H26.5 M26.5,0H1.4C0.6,0,0,0.6,0,1.4v4.2C0,6.4,0.6,7,1.4,7h25.2c0.8,0,1.4-0.6,1.4-1.4V1.4
	C27.9,0.6,27.3,0,26.5,0L26.5,0z"/>
<path fill-rule="evenodd" clip-rule="evenodd" fill="#FFFFFF" d="M2.8,12.6v-1.4h15.4v1.4H2.8z"/>
<path fill-rule="evenodd" clip-rule="evenodd" fill="#FFFFFF" d="M24.4,11.2c0.4,0,0.7,0.3,0.7,0.7c0,0.4-0.3,0.7-0.7,0.7
	c-0.4,0-0.7-0.3-0.7-0.7C23.7,11.5,24.1,11.2,24.4,11.2z"/>
<path fill="#FFFFFF" d="M26.5,9.7c0.1,0,0.1,0.1,0.1,0.1V14c0,0.1-0.1,0.1-0.1,0.1H1.4c-0.1,0-0.1-0.1-0.1-0.1V9.8
	c0-0.1,0.1-0.1,0.1-0.1H26.5 M26.5,8.4H1.4C0.6,8.4,0,9,0,9.8V14c0,0.8,0.6,1.4,1.4,1.4h25.2c0.8,0,1.4-0.6,1.4-1.4V9.8
	C27.9,9,27.3,8.4,26.5,8.4L26.5,8.4z"/>
<path fill-rule="evenodd" clip-rule="evenodd" fill="#FFFFFF" d="M2.8,21v-1.4h15.4V21H2.8z"/>
<path fill-rule="evenodd" clip-rule="evenodd" fill="#FFFFFF" d="M24.4,19.6c0.4,0,0.7,0.3,0.7,0.7c0,0.4-0.3,0.7-0.7,0.7
	c-0.4,0-0.7-0.3-0.7-0.7C23.7,19.9,24.1,19.6,24.4,19.6z"/>
<path fill="#FFFFFF" d="M26.5,18.1c0.1,0,0.1,0.1,0.1,0.1v4.2c0,0.1-0.1,0.1-0.1,0.1H1.4c-0.1,0-0.1-0.1-0.1-0.1v-4.2
	c0-0.1,0.1-0.1,0.1-0.1H26.5 M26.5,16.8H1.4c-0.8,0-1.4,0.6-1.4,1.4v4.2c0,0.8,0.6,1.4,1.4,1.4h25.2c0.8,0,1.4-0.6,1.4-1.4v-4.2
	C27.9,17.4,27.3,16.8,26.5,16.8L26.5,16.8z"/>
</svg>
