<?xml version="1.0" encoding="utf-8"?>
<!-- Generator: Adobe Illustrator 17.1.0, SVG Export Plug-In . SVG Version: 6.00 Build 0)  -->
<!DOCTYPE svg PUBLIC "-//W3C//DTD SVG 1.1//EN" "http://www.w3.org/Graphics/SVG/1.1/DTD/svg11.dtd">
<svg version="1.1" id="Layer_2" xmlns="http://www.w3.org/2000/svg" xmlns:xlink="http://www.w3.org/1999/xlink" x="0px" y="0px"
	 viewBox="0 0 29 33.5" enable-background="new 0 0 29 33.5" xml:space="preserve">
<rect x="4.5" y="4.7" fill-rule="evenodd" clip-rule="evenodd" fill="#121212" width="14" height="1.8"/>
<g>
	<path fill="#121212" d="M26.5,2.5l0,6l-24,0l0-6H26.5 M26.5,0.5h-24c-1.1,0-2,0.9-2,2v6c0,1.1,0.9,2,2,2h24c1.1,0,2-0.9,2-2v-6
		C28.5,1.4,27.6,0.5,26.5,0.5L26.5,0.5z"/>
</g>
<circle fill-rule="evenodd" clip-rule="evenodd" fill="#121212" cx="23.4" cy="5.4" r="0.9"/>
<rect x="4.5" y="15.7" fill-rule="evenodd" clip-rule="evenodd" fill="#121212" width="14" height="1.8"/>
<g>
	<path fill="#121212" d="M26.5,13.5l0,6l-24,0l0-6H26.5 M26.5,11.5h-24c-1.1,0-2,0.9-2,2v6c0,1.1,0.9,2,2,2h24c1.1,0,2-0.9,2-2v-6
		C28.5,12.4,27.6,11.5,26.5,11.5L26.5,11.5z"/>
</g>
<circle fill-rule="evenodd" clip-rule="evenodd" fill="#121212" cx="23.4" cy="16.4" r="0.9"/>
<rect x="4.5" y="26.7" fill-rule="evenodd" clip-rule="evenodd" fill="#121212" width="14" height="1.8"/>
<g>
	<path fill="#121212" d="M26.5,24.5l0,6l-24,0l0-6H26.5 M26.5,22.5h-24c-1.1,0-2,0.9-2,2v6c0,1.1,0.9,2,2,2h24c1.1,0,2-0.9,2-2v-6
		C28.5,23.4,27.6,22.5,26.5,22.5L26.5,22.5z"/>
</g>
<circle fill-rule="evenodd" clip-rule="evenodd" fill="#121212" cx="23.4" cy="27.4" r="0.9"/>
</svg>
